<svg xmlns="http://www.w3.org/2000/svg" fill="none" stroke="#000" stroke-linecap="round" stroke-width="2" viewBox="0 0 1963.2 600">
  <path d="M9 276.5c12 13 27 24 46 24 36-1 53-30 53-56v-122M244 113.5c52 0 93 42 93 94 0 51-41 93-93 93-51 0-93-42-93-93 0-52 42-94 93-94M382 300l88-174 88 174m-157-39h138M507 62s-12 21-38 1c-20-15-36 6-36 6M696 113.5c52 0 93 42 93 94 0 51-41 93-93 93-51 0-93-42-93-93 0-52 42-94 93-94M932 300.5v-174l85 115 87-115v174M1240 113.5c52 0 93 42 93 94 0 51-41 93-93 93-51 0-93-42-93-93 0-52 42-94 93-94M1376 123.5V235c0 36 35 65 73 65s73-29 73-65V123.5M1700 300l-56-72m-79 0h84c28 0 51-22.5 51-50.5s-23-51-51-51h-84V300M1924.1 300.5l-88-174-88 174m19-38h138" vector-effect="non-scaling-stroke"/>
</svg>
