<?xml version="1.0" standalone="no"?>
<!DOCTYPE svg PUBLIC "-//W3C//DTD SVG 20010904//EN"
 "http://www.w3.org/TR/2001/REC-SVG-20010904/DTD/svg10.dtd">
<svg version="1.0" xmlns="http://www.w3.org/2000/svg"
 width="383.000000pt" height="400.000000pt" viewBox="0 0 383.000000 400.000000"
 preserveAspectRatio="xMidYMid meet">
<metadata>
Created by potrace 1.16, written by Peter Selinger 2001-2019
</metadata>
<g transform="translate(0.000000,400.000000) scale(0.100000,-0.100000)"
fill="#000000" stroke="none">
<path d="M1240 3592 c0 -5 -19 -15 -42 -22 -87 -26 -129 -43 -150 -62 -12 -11
-30 -17 -40 -15 -10 3 -16 1 -12 -4 5 -8 -9 -13 -28 -10 -5 0 -8 -4 -8 -9 0
-5 -7 -10 -15 -10 -9 0 -20 -11 -27 -25 -6 -13 -23 -28 -37 -33 -14 -5 -37
-19 -50 -31 -13 -11 -29 -21 -36 -21 -21 0 -45 -36 -45 -68 0 -17 -6 -35 -13
-39 -6 -4 -29 -42 -50 -83 l-37 -75 6 -160 c3 -88 12 -189 20 -225 8 -36 16
-86 17 -111 1 -26 5 -45 8 -43 16 9 19 -87 5 -130 -8 -24 -13 -55 -11 -68 3
-12 8 -37 11 -55 3 -18 14 -42 24 -53 12 -14 19 -46 25 -113 11 -148 46 -309
72 -335 7 -7 13 -22 13 -33 0 -10 7 -19 15 -19 8 0 15 -8 15 -18 0 -9 8 -22
19 -29 10 -6 21 -25 24 -42 4 -17 12 -31 18 -31 16 0 129 -111 129 -127 0 -7
16 -33 35 -59 26 -34 33 -50 26 -62 -12 -23 -11 -134 1 -149 7 -8 6 -29 -2
-62 -10 -44 -9 -55 13 -112 51 -132 60 -176 32 -165 -8 3 -21 -1 -29 -9 -20
-20 -25 -19 -19 5 3 11 9 20 14 20 5 0 9 5 9 11 0 6 -7 9 -15 5 -11 -4 -15 3
-16 27 -1 18 -4 43 -8 57 l-7 25 -5 -25 c-3 -14 -4 -68 -3 -120 2 -52 5 -146
6 -209 3 -77 1 -105 -5 -85 -9 31 -12 328 -5 552 2 74 0 136 -4 138 -13 8 -68
-88 -68 -119 0 -15 -5 -38 -11 -49 -13 -24 -19 -259 -7 -252 10 6 11 -40 2
-49 -4 -4 -8 -36 -8 -72 -2 -67 -14 -92 -40 -82 -11 5 -17 21 -18 54 -1 26 -2
57 -2 67 -1 11 -7 21 -14 24 -7 2 -10 13 -6 28 6 24 -11 35 -18 12 -7 -19 -27
1 -23 22 5 24 -1 25 -21 5 -9 -8 -11 -15 -5 -15 6 0 11 -4 11 -8 0 -5 -23 -10
-51 -11 -47 -1 -51 0 -46 19 4 17 0 20 -26 19 -27 0 -29 -2 -12 -9 12 -5 -3
-6 -40 -4 -50 4 -64 1 -84 -16 -23 -19 -28 -34 -30 -83 -1 -24 -21 -11 -21 14
0 10 -5 19 -10 19 -6 0 -14 10 -19 21 -6 19 -11 14 -35 -36 -22 -46 -30 -56
-46 -52 -15 4 -25 -4 -42 -34 -25 -45 -43 -51 -34 -11 7 27 7 27 -9 5 -8 -12
-14 -27 -13 -34 2 -7 -8 -16 -22 -20 -16 -4 -19 -7 -7 -8 24 -1 22 -38 -3 -51
-16 -9 -20 -8 -21 7 0 10 -3 13 -5 6 -3 -7 0 -22 6 -33 6 -12 9 -24 6 -27 -8
-8 -36 24 -36 41 0 32 -18 15 -24 -23 -3 -22 -11 -43 -17 -47 -8 -5 -10 1 -7
19 3 15 0 28 -5 30 -6 2 -4 16 6 37 21 41 22 50 2 24 -15 -18 -16 -17 -10 16
5 31 4 33 -7 15 -8 -13 -12 -66 -12 -157 -1 -128 -6 -161 -23 -144 -9 8 -21
100 -24 181 -1 33 -4 49 -6 35 -3 -14 -15 -56 -28 -95 -13 -38 -26 -79 -28
-90 -3 -13 -5 -10 -6 10 -2 41 -17 65 -24 39 -35 -121 -36 -188 -6 -321 l21
-93 659 0 659 0 -5 33 -5 32 10 -32 c8 -26 16 -33 35 -33 18 0 25 5 25 20 0
11 5 20 11 20 5 0 8 4 5 9 -17 28 76 400 133 536 22 50 46 119 56 155 9 36 21
74 25 85 5 11 16 52 26 91 16 66 16 74 1 119 -16 45 -16 49 1 62 16 14 16 14
0 9 -25 -8 -22 10 4 29 22 15 23 14 32 -12 5 -16 18 -38 29 -50 13 -14 18 -31
15 -47 -3 -16 -1 -26 6 -26 7 0 20 -6 30 -13 15 -11 16 -17 5 -40 -10 -21 -10
-30 -1 -39 14 -14 16 -48 3 -48 -5 0 -7 -8 -4 -18 2 -10 -3 -24 -11 -31 -22
-18 -20 -41 3 -41 15 0 18 -5 13 -22 -3 -12 -7 -17 -10 -10 -6 18 -32 15 -32
-4 0 -8 5 -12 10 -9 15 9 25 -24 11 -38 -8 -8 -11 -6 -12 9 0 12 -7 5 -19 -21
-23 -50 -25 -85 -5 -85 8 0 15 -7 15 -16 0 -11 -5 -14 -16 -10 -9 3 -25 -1
-37 -10 -14 -10 -16 -14 -5 -11 20 7 53 -16 45 -31 -4 -5 -16 -8 -27 -5 -14 4
-20 0 -20 -11 0 -9 7 -16 15 -16 8 0 15 -5 15 -11 0 -6 -9 -8 -20 -4 -14 5
-20 2 -20 -9 0 -14 12 -20 33 -17 4 0 7 -5 7 -13 0 -10 -8 -13 -25 -10 -20 3
-25 0 -25 -15 0 -14 5 -18 20 -14 30 8 24 -10 -9 -25 -21 -9 -28 -18 -24 -32
5 -20 4 -20 -46 -24 -8 -1 -16 -7 -19 -14 -2 -6 -14 -12 -27 -12 -13 0 -30 -3
-39 -6 -33 -13 -14 -19 50 -16 l67 4 -7 -27 c-8 -30 -30 -57 -40 -48 -3 3 -14
-1 -23 -10 -10 -8 -30 -18 -44 -22 -24 -6 -25 -5 -21 26 7 46 -13 28 -26 -23
-15 -61 -26 -164 -17 -156 5 4 11 25 14 45 6 32 10 38 29 35 12 -2 22 2 22 7
0 6 -9 11 -19 11 -19 0 -38 17 -29 25 2 3 21 7 42 9 35 5 37 4 30 -17 -3 -12
-10 -26 -14 -32 -4 -5 -10 -26 -14 -47 l-7 -36 376 -2 c332 -1 375 1 375 15 0
8 7 15 15 15 18 0 20 -16 3 -23 -7 -3 80 -6 195 -6 l207 -1 0 30 c0 17 4 30 8
30 5 0 14 26 21 58 7 31 19 77 26 102 8 25 16 54 18 65 1 11 5 25 9 30 3 6 9
27 13 47 4 21 13 42 21 49 8 6 14 19 14 29 0 9 9 27 20 40 23 26 36 67 25 78
-3 4 -11 -1 -16 -11 -14 -23 -39 -22 -39 3 0 11 6 20 14 20 8 0 17 9 21 19 3
11 17 26 30 35 14 9 25 23 25 30 0 8 7 17 16 20 8 3 13 10 10 15 -4 5 0 11 6
14 10 3 10 7 -1 20 -7 10 -10 17 -5 17 5 0 1 5 -9 11 -9 6 -15 14 -12 20 7 10
-7 12 -72 11 -38 -1 -43 2 -43 22 0 12 -6 31 -14 42 -15 19 -15 19 -30 -1 -8
-11 -16 -27 -16 -36 0 -13 -12 -18 -47 -21 -27 -3 -51 -3 -55 -1 -11 5 16 52
37 62 11 5 15 10 8 10 -8 1 -9 10 -3 32 5 18 7 35 5 40 -3 4 0 9 5 11 7 2 6 9
-2 20 -16 20 -82 13 -74 -8 3 -8 -1 -14 -9 -14 -10 0 -12 9 -8 33 2 17 5 41 4
51 0 38 -55 48 -58 11 0 -11 -10 -38 -21 -60 -11 -21 -17 -46 -14 -54 3 -9 1
-12 -6 -7 -7 4 -12 1 -12 -7 0 -8 -7 -20 -15 -27 -8 -7 -12 -16 -9 -22 3 -5
-6 -24 -21 -43 -14 -20 -23 -40 -20 -45 3 -6 -2 -10 -12 -10 -12 0 -4 -9 22
-26 40 -25 35 -27 -31 -8 -13 3 -28 -1 -38 -11 -15 -16 -18 -16 -42 0 -14 9
-31 14 -37 12 -7 -3 1 -10 16 -16 16 -6 27 -16 25 -23 -6 -18 -28 -21 -28 -4
0 9 -4 17 -10 18 -38 5 -36 7 -39 -53 0 -18 -5 -28 -11 -24 -6 4 -8 21 -4 41
3 19 2 34 -3 34 -5 0 -10 -14 -11 -32 -3 -38 -2 -37 -35 -40 -14 -1 -24 -5
-21 -9 2 -4 0 -10 -6 -14 -5 -3 -10 -14 -10 -23 0 -22 -48 -74 -61 -67 -10 7
-16 -5 -23 -47 -7 -39 -14 -48 -42 -48 -22 0 -29 -10 -25 -34 1 -5 -4 -13 -11
-18 -10 -6 -10 -10 2 -17 12 -9 12 -11 -3 -17 -10 -4 -16 -13 -13 -20 3 -8 1
-14 -4 -14 -6 0 -10 -12 -10 -27 0 -16 -5 -35 -10 -43 -7 -10 -10 21 -10 98 0
61 4 112 9 112 10 0 68 77 95 126 9 16 32 49 51 74 19 25 42 59 51 77 9 18 22
37 30 44 8 6 14 17 14 23 0 6 8 23 18 36 21 31 43 92 35 100 -3 3 -8 -1 -10
-7 -3 -7 -12 -13 -22 -13 -9 0 -22 -5 -28 -11 -7 -7 -30 -12 -52 -12 -23 0
-41 -2 -41 -6 0 -3 -18 -26 -40 -51 -40 -45 -50 -48 -28 -7 10 20 10 21 -5 8
-10 -7 -17 -19 -17 -25 0 -6 -8 -20 -16 -31 -16 -20 -16 -19 -9 3 5 18 1 31
-17 50 -23 25 -48 93 -63 172 -4 19 -27 74 -51 121 -46 88 -50 125 -13 116 15
-4 17 -2 9 13 -14 26 -13 29 11 23 17 -5 20 -2 15 13 -4 14 3 26 25 44 18 14
41 35 52 48 11 12 26 22 33 22 7 0 16 9 19 20 3 11 10 20 14 20 16 0 119 110
135 145 9 19 21 59 26 88 5 28 14 67 21 85 8 23 8 37 1 44 -10 10 -128 16
-137 6 -3 -2 7 -52 21 -110 34 -135 30 -162 -34 -218 -26 -22 -55 -48 -64 -57
-9 -8 -22 -12 -28 -8 -6 3 -9 1 -8 -7 4 -19 -41 -22 -61 -4 -10 9 -21 13 -24
9 -4 -3 -5 9 -2 28 4 26 3 29 -4 14 -8 -17 -10 -14 -10 17 -1 20 4 39 12 41
10 4 10 6 0 6 -7 1 -13 8 -13 16 0 8 -6 15 -12 15 -14 1 -58 34 -58 45 0 3 5
3 10 0 6 -3 10 1 10 9 0 8 6 21 13 28 8 7 17 26 21 41 3 15 13 27 22 27 8 0
13 4 10 9 -4 5 18 45 47 89 63 92 72 130 69 280 -1 60 3 102 8 102 6 0 10 -10
10 -22 0 -33 32 -239 37 -235 2 2 -2 46 -9 98 -14 112 -9 138 32 162 47 28 80
69 79 97 l-2 25 -4 -25 c-3 -14 -12 -33 -20 -42 -17 -19 -43 -24 -43 -9 0 5
-8 7 -18 5 -9 -3 -27 4 -40 16 l-22 21 -9 -23 c-9 -21 -10 -21 -10 -3 -1 11
-8 33 -16 49 -8 15 -15 49 -15 74 0 25 -3 42 -7 38 -4 -4 -6 -24 -4 -46 1 -21
-2 -48 -8 -59 -9 -16 -7 -25 14 -47 14 -15 23 -34 20 -42 -3 -7 -5 -23 -6 -35
0 -21 -1 -21 -11 3 l-11 25 -5 -23 c-2 -13 1 -29 7 -36 7 -9 7 -16 -1 -24 -7
-7 -11 -29 -10 -49 2 -21 -2 -40 -10 -44 -21 -14 -25 -10 -20 16 5 27 -6 32
-27 13 -11 -11 -13 -10 -7 5 3 10 6 21 6 23 0 3 5 2 10 -1 16 -10 12 12 -6 29
-19 20 -25 20 -18 1 7 -18 -7 -20 -24 -3 -8 8 -15 3 -29 -20 -10 -18 -23 -32
-30 -32 -6 0 -15 -9 -18 -21 -10 -30 -19 -15 -44 68 -12 40 -26 75 -31 78 -5
3 -16 20 -25 38 -18 38 -98 92 -133 89 -13 -1 -39 5 -56 13 -35 17 -69 16 -87
-2 -9 -9 -6 -19 9 -38 12 -14 26 -42 33 -62 15 -46 2 -59 -90 -88 l-70 -22
-21 22 c-31 33 -41 79 -42 200 -1 130 10 143 68 76 20 -22 48 -43 65 -46 16
-4 31 -11 34 -16 4 -5 20 -2 37 7 23 12 46 15 88 10 47 -6 60 -4 71 10 13 16
12 17 -8 12 -13 -4 -23 -2 -23 2 0 5 19 12 43 16 34 5 38 8 22 15 -14 5 -3 8
35 8 39 1 51 4 40 11 -8 5 -25 10 -37 10 -13 0 -23 4 -23 8 0 5 14 7 30 4 22
-3 30 0 30 11 0 8 -6 18 -12 20 -10 4 -10 6 0 6 29 2 -6 71 -36 71 -11 0 -12
3 -3 14 20 24 22 57 3 62 -9 3 -25 10 -34 15 -10 5 -25 9 -33 9 -9 0 -26 6
-38 14 -15 10 -42 14 -84 11 -47 -2 -63 1 -67 12 -3 8 -11 11 -17 8 -21 -14
-67 15 -73 47 -12 59 -8 71 19 64 21 -5 25 -3 25 15 0 12 8 23 19 26 25 6 24
66 -2 71 -9 2 -17 10 -17 17 0 9 6 12 15 9 8 -4 15 -1 15 5 0 6 -7 11 -15 11
-11 0 -14 11 -13 45 2 40 5 45 25 45 13 0 23 4 23 9 0 17 39 19 43 2 4 -14 5
-14 6 2 1 20 27 23 34 5 3 -7 6 -4 6 7 1 17 3 18 12 5 7 -11 12 -12 15 -3 3 7
12 9 20 6 8 -3 14 0 14 6 0 19 20 12 20 -6 1 -17 1 -17 14 0 23 29 52 18 81
-32 5 -9 4 -12 -3 -7 -15 9 -15 0 0 -27 16 -31 27 -87 17 -87 -5 0 -9 -5 -9
-11 0 -5 4 -8 9 -5 4 3 17 -1 27 -9 10 -7 29 -11 42 -8 13 3 22 1 22 -6 0 -23
19 -10 23 17 4 27 4 26 12 -7 8 -34 8 -34 18 -10 5 14 11 19 14 12 8 -23 23
-14 24 15 1 20 3 16 10 -16 11 -58 18 -67 35 -45 8 11 13 13 14 6 0 -7 7 -13
15 -13 9 0 12 6 9 15 -4 8 -1 15 6 15 7 0 10 -8 7 -20 -4 -14 1 -25 14 -33 10
-6 19 -15 19 -19 0 -5 -9 -3 -20 4 -24 15 -31 9 -23 -20 4 -17 11 -21 24 -17
14 5 19 1 19 -14 0 -11 4 -22 9 -25 5 -4 12 -29 16 -56 4 -28 11 -50 16 -50
10 0 30 46 28 63 -1 16 46 48 63 44 10 -3 16 -1 12 4 -3 5 -23 9 -44 9 -47 0
-60 18 -60 85 0 25 -7 60 -16 77 -9 17 -14 44 -11 61 2 17 0 47 -5 66 -5 20
-10 45 -12 56 -2 11 -4 20 -6 20 -1 0 -4 23 -6 50 -3 28 -6 59 -7 70 -4 28
-38 95 -48 95 -5 0 -9 9 -9 20 0 11 -8 27 -19 36 -11 10 -16 24 -14 35 4 13 0
19 -12 19 -10 0 -52 18 -95 39 -42 22 -104 47 -137 55 -32 9 -74 23 -91 32
-37 18 -200 27 -219 12 -7 -5 -14 -5 -18 2 -7 12 -25 13 -25 2z m498 -667 c-3
-3 -9 2 -12 12 -6 14 -5 15 5 6 7 -7 10 -15 7 -18z m-143 -446 c15 0 11 -5
-14 -16 -27 -11 -31 -17 -20 -24 8 -5 9 -9 4 -9 -16 0 -42 34 -37 49 3 8 13
10 26 7 11 -3 30 -6 41 -7z m-865 -79 c0 -5 -4 -10 -10 -10 -5 0 -10 5 -10 10
0 6 5 10 10 10 6 0 10 -4 10 -10z m1230 -410 c0 -5 -4 -10 -10 -10 -5 0 -10 5
-10 10 0 6 5 10 10 10 6 0 10 -4 10 -10z m-486 -56 c11 -29 6 -44 -14 -44 -14
0 -20 7 -20 21 0 13 4 18 12 13 8 -5 9 -2 5 9 -3 10 -2 17 2 17 5 0 12 -7 15
-16z m-49 -25 c9 -27 -15 -46 -28 -23 -10 17 -2 44 12 44 5 0 13 -10 16 -21z
m-57 -26 c2 -24 -1 -32 -18 -36 -13 -3 -24 1 -30 14 -8 14 -7 19 2 19 9 0 9 3
-2 10 -13 9 -7 14 13 11 4 0 7 4 7 10 0 25 25 0 28 -28z m-82 -19 c4 -17 2
-29 -7 -35 -22 -14 -29 -11 -39 17 -15 38 -13 44 15 44 18 0 26 -7 31 -26z
m-79 -16 c-3 -7 -5 -2 -5 12 0 14 2 19 5 13 2 -7 2 -19 0 -25z m-27 -6 c0 -15
-2 -15 -10 -2 -13 20 -13 33 0 25 6 -3 10 -14 10 -23z m371 11 c33 -42 39 -61
27 -90 -13 -30 -47 -73 -59 -73 -3 0 -9 9 -12 20 -3 13 -24 28 -56 42 -28 11
-51 27 -51 35 0 8 -9 17 -20 20 -32 9 -23 20 33 42 66 25 119 27 138 4z m289
-343 c0 -5 -2 -10 -4 -10 -3 0 -8 5 -11 10 -3 6 -1 10 4 10 6 0 11 -4 11 -10z
m-100 -95 c0 -19 -4 -35 -9 -35 -5 0 -9 16 -9 35 0 19 4 35 9 35 5 0 9 -16 9
-35z m-540 -367 c0 -11 -5 -16 -10 -13 -6 4 -8 10 -5 15 3 4 -2 10 -10 14 -8
3 -15 13 -15 22 0 16 2 16 20 -1 11 -10 20 -27 20 -37z m28 27 c-3 -3 -9 2
-12 12 -6 14 -5 15 5 6 7 -7 10 -15 7 -18z m62 -46 c0 -6 -4 -7 -10 -4 -5 3
-10 11 -10 16 0 6 5 7 10 4 6 -3 10 -11 10 -16z m-30 -19 c0 -5 -2 -10 -4 -10
-3 0 -8 5 -11 10 -3 6 -1 10 4 10 6 0 11 -4 11 -10z m30 -14 c0 -2 -7 -9 -15
-16 -13 -11 -14 -10 -9 4 5 14 24 23 24 12z m1385 -46 c-3 -5 -14 -10 -23 -9
-14 0 -13 2 3 9 27 11 27 11 20 0z m-1412 -31 c-4 -20 4 -40 30 -78 23 -33 38
-69 42 -99 6 -44 15 -81 29 -127 4 -11 -3 -2 -14 20 l-21 40 6 -35 c4 -19 9
-43 12 -54 3 -12 1 -17 -8 -14 -8 3 -14 16 -14 29 0 28 -16 43 -27 26 -5 -7
-8 -3 -8 13 0 18 -3 21 -12 12 -9 -9 -9 -18 0 -36 7 -15 8 -28 2 -31 -5 -3
-12 7 -16 22 -3 15 -11 44 -17 63 -6 19 -10 39 -9 43 1 5 -2 24 -7 43 -7 27
-6 36 6 43 9 4 13 14 11 22 -3 8 -1 21 3 31 7 13 4 15 -14 12 -12 -2 -17 -2
-11 1 8 4 10 20 7 43 -4 33 -2 38 15 38 17 0 20 -5 15 -27z m-73 -60 c0 -5 -4
-9 -10 -9 -5 0 -10 -6 -10 -14 0 -8 -7 -17 -16 -20 -8 -3 -13 -9 -10 -14 2 -4
-4 -14 -15 -20 -19 -12 -20 -11 -13 25 4 21 14 43 21 48 19 14 53 16 53 4z
m923 -4 c-3 -9 -8 -14 -10 -11 -3 3 -2 9 2 15 9 16 15 13 8 -4z m497 11 c0 -3
-4 -8 -10 -11 -5 -3 -10 -1 -10 4 0 6 5 11 10 11 6 0 10 -2 10 -4z m-1383 -48
c-3 -7 -5 -2 -5 12 0 14 2 19 5 13 2 -7 2 -19 0 -25z m1383 8 c0 -15 -18 -31
-26 -23 -7 7 7 37 17 37 5 0 9 -6 9 -14z m-1728 -18 c-13 -13 -81 -38 -102
-37 -10 0 -11 2 -2 6 6 2 12 13 12 23 0 14 9 18 52 19 39 0 49 -2 40 -11z
m1728 -28 c24 -8 24 -8 -5 -8 -16 0 -39 3 -50 8 -18 8 -18 9 5 8 14 0 36 -4
50 -8z m-91 -21 c-22 -14 -33 -10 -19 6 7 8 17 12 22 9 6 -4 5 -10 -3 -15z
m388 5 c-3 -3 -12 -4 -19 -1 -8 3 -5 6 6 6 11 1 17 -2 13 -5z m-937 -8 c0 -3
-4 -8 -10 -11 -5 -3 -10 -1 -10 4 0 6 5 11 10 11 6 0 10 -2 10 -4z m610 -67
c0 -14 -17 -10 -23 5 -4 10 -1 13 9 9 7 -3 14 -9 14 -14z m-2130 2 c0 -6 -4
-13 -10 -16 -5 -3 -10 1 -10 9 0 9 5 16 10 16 6 0 10 -4 10 -9z m1330 -43 c0
-19 -18 -43 -25 -36 -9 9 4 48 16 48 5 0 9 -6 9 -12z m-575 -103 c15 -55 34
-125 41 -155 8 -30 19 -63 24 -72 8 -13 7 -18 -3 -18 -19 0 -56 90 -63 155 -4
30 -11 52 -15 49 -5 -3 -9 -1 -9 5 0 5 6 12 13 14 9 4 9 7 0 14 -6 5 -15 33
-19 63 -4 30 -4 53 -1 50 3 -3 17 -50 32 -105z m1112 99 c-3 -3 -12 -4 -19 -1
-8 3 -5 6 6 6 11 1 17 -2 13 -5z m-1343 -12 c8 -13 -19 -40 -44 -44 -17 -2
-26 2 -28 15 -2 12 3 17 17 17 11 0 23 5 26 10 7 12 22 13 29 2z m1586 -14 c0
-6 7 -20 17 -30 15 -17 15 -18 -6 -18 -22 0 -43 34 -34 57 6 15 23 7 23 -9z
m-150 -20 l-25 -11 25 -6 c46 -13 2 -23 -68 -15 -74 7 -106 10 -139 12 -13 1
-23 6 -23 10 0 5 28 8 63 7 34 -1 73 2 87 6 14 4 43 7 65 8 37 0 38 -1 15 -11z
m-376 -30 c-25 -43 -206 -228 -223 -228 -9 0 18 34 64 78 44 43 91 91 105 106
51 55 69 70 54 44z m307 -30 c0 -10 2 -10 6 0 8 20 18 14 21 -13 1 -15 -4 -28
-13 -31 -8 -4 -15 -10 -15 -15 0 -15 37 -10 50 6 9 11 16 13 23 6 13 -13 -18
-51 -40 -51 -8 0 -23 -10 -34 -22 l-18 -23 -1 22 c0 25 -15 39 -25 23 -12 -20
-35 -10 -35 15 0 14 -5 25 -10 25 -14 0 -55 38 -48 45 8 9 38 -6 38 -19 0 -11
59 -50 66 -43 9 9 -10 46 -27 50 -10 3 -19 10 -19 15 0 20 80 29 81 10z m509
-30 c0 -4 -3 -8 -8 -8 -8 0 -52 -91 -52 -109 0 -6 -7 -11 -15 -11 -8 0 -15 -4
-15 -10 0 -5 5 -10 11 -10 5 0 7 -5 3 -11 -4 -8 -11 -3 -20 12 -10 20 -10 27
2 40 8 8 14 20 14 26 0 6 7 14 16 17 8 3 12 10 9 16 -8 12 25 57 42 57 7 0 13
-4 13 -9z m-1733 -45 c-3 -10 -5 -2 -5 17 0 19 2 27 5 18 2 -10 2 -26 0 -35z
m246 -33 c3 -11 -2 -25 -11 -32 -13 -11 -15 -10 -9 5 3 9 2 17 -3 17 -5 0 -8
9 -7 19 1 23 23 17 30 -9z m84 8 c-3 -8 -6 -5 -6 6 -1 11 2 17 5 13 3 -3 4
-12 1 -19z m-1207 3 c0 -6 -4 -13 -10 -16 -5 -3 -10 1 -10 9 0 9 5 16 10 16 6
0 10 -4 10 -9z m920 -120 c0 -30 -12 -20 -15 13 -2 13 -6 35 -9 48 -4 16 -2
14 9 -7 8 -16 14 -41 15 -54z m-818 0 c2 -17 1 -28 -4 -25 -8 5 -12 54 -4 54
2 0 6 -13 8 -29z m1435 -13 c-3 -8 -6 -5 -6 6 -1 11 2 17 5 13 3 -3 4 -12 1
-19z m953 2 c0 -5 -5 -10 -11 -10 -5 0 -7 5 -4 10 3 6 8 10 11 10 2 0 4 -4 4
-10z m-1426 -71 c-8 -13 -24 -1 -24 18 0 13 3 13 15 3 8 -7 12 -16 9 -21z
m396 -26 c0 -10 -4 -14 -8 -8 -4 6 -11 13 -16 18 -5 4 -2 7 7 7 10 0 17 -8 17
-17z m-382 -24 c2 -23 2 -23 -13 -5 -18 24 -20 39 -2 34 6 -3 13 -15 15 -29z
m1349 -5 c-3 -3 -12 -4 -19 -1 -8 3 -5 6 6 6 11 1 17 -2 13 -5z m-1342 -34 c3
-5 1 -10 -4 -10 -6 0 -11 5 -11 10 0 6 2 10 4 10 3 0 8 -4 11 -10z m315 -14
c0 -11 -19 -15 -25 -6 -3 5 1 10 9 10 9 0 16 -2 16 -4z m-300 -16 c0 -5 -7
-10 -15 -10 -8 0 -15 5 -15 10 0 6 7 10 15 10 8 0 15 -4 15 -10z m335 -10 c3
-5 -1 -10 -9 -10 -9 0 -16 5 -16 10 0 6 4 10 9 10 6 0 13 -4 16 -10z m-47 -17
c2 -8 -6 -13 -22 -13 -25 0 -33 10 -19 24 10 10 36 3 41 -11z m312 -42 c0 -6
-4 -13 -10 -16 -5 -3 -10 1 -10 9 0 9 5 16 10 16 6 0 10 -4 10 -9z m406 -29
c-10 -11 -16 -12 -16 -4 0 7 5 12 10 12 6 0 10 8 11 18 0 11 2 13 6 4 3 -8 -2
-21 -11 -30z m-756 18 c0 -5 -5 -10 -11 -10 -5 0 -7 5 -4 10 3 6 8 10 11 10 2
0 4 -4 4 -10z"/>
<path d="M1269 808 c-1 -7 -1 -17 0 -22 1 -5 -6 -6 -15 -2 -14 5 -15 4 -4 -9
18 -22 34 -14 37 18 2 26 -16 40 -18 15z"/>
<path d="M1930 2746 c0 -9 5 -16 10 -16 6 0 10 4 10 9 0 6 -4 13 -10 16 -5 3
-10 -1 -10 -9z"/>
<path d="M1900 2731 c0 -6 4 -13 10 -16 6 -3 7 1 4 9 -7 18 -14 21 -14 7z"/>
<path d="M2071 2677 c-8 -10 -3 -37 19 -108 16 -52 30 -103 31 -114 2 -29 27
73 28 115 1 49 -28 120 -49 120 -10 0 -23 -6 -29 -13z"/>
<path d="M1920 2644 c0 -14 4 -23 10 -19 6 3 10 15 10 26 0 10 -4 19 -10 19
-5 0 -10 -12 -10 -26z"/>
<path d="M2155 2559 c0 -54 3 -93 7 -86 10 16 10 174 1 180 -5 3 -8 -39 -8
-94z"/>
<path d="M2003 2601 c-1 -24 4 -44 12 -51 19 -16 8 -32 -16 -25 -16 5 -19 1
-19 -22 0 -16 8 -39 17 -53 11 -15 16 -39 14 -68 -1 -29 2 -42 9 -37 6 4 9 14
8 23 -2 13 4 17 25 17 60 0 72 77 21 138 -13 16 -24 35 -24 44 0 16 -31 73
-40 73 -3 0 -6 -18 -7 -39z"/>
<path d="M2098 2378 c-19 -19 -25 -53 -7 -43 10 7 32 56 27 60 -2 1 -11 -7
-20 -17z"/>
<path d="M2136 2347 c-5 -21 -6 -41 -2 -44 12 -12 17 5 14 43 l-4 39 -8 -38z"/>
<path d="M2086 2304 c-4 -9 -4 -19 -1 -22 2 -3 7 3 11 12 4 9 4 19 1 22 -2 3
-7 -3 -11 -12z"/>
<path d="M1900 2119 c0 -5 5 -7 10 -4 6 3 10 8 10 11 0 2 -4 4 -10 4 -5 0 -10
-5 -10 -11z"/>
<path d="M2045 1860 c9 -31 20 -43 33 -39 6 2 -1 17 -15 34 -25 28 -25 28 -18
5z"/>
<path d="M1916 1405 c-3 -8 -1 -15 4 -15 13 0 22 18 11 24 -5 3 -11 -1 -15 -9z"/>
<path d="M2391 1404 c32 -37 30 -63 -7 -102 -19 -20 -34 -42 -34 -49 0 -7 -4
-13 -10 -13 -5 0 -10 -6 -10 -14 0 -8 -11 -17 -25 -20 -14 -4 -23 -11 -20 -16
3 -6 -5 -25 -19 -43 -15 -19 -26 -39 -26 -45 0 -6 -6 -9 -14 -6 -20 8 -166
-185 -166 -218 0 -7 8 -1 18 15 10 15 21 25 23 22 3 -2 23 13 46 33 30 28 43
34 51 26 6 -7 8 -15 5 -18 -4 -3 1 -6 10 -6 10 0 14 5 11 15 -5 11 1 15 19 15
14 0 29 5 32 10 3 6 1 10 -4 10 -6 0 8 26 32 58 66 88 173 329 136 306 -6 -3
-10 0 -8 7 3 24 -1 43 -7 36 -4 -3 -16 -1 -28 5 -20 10 -20 10 -5 -8z"/>
<path d="M1930 1290 c-13 -9 -13 -12 2 -24 10 -7 15 -16 12 -19 -3 -3 -3 -11
1 -17 6 -9 10 -9 16 1 19 31 -5 76 -31 59z"/>
<path d="M955 1279 c-4 -6 -4 -13 -1 -16 3 -4 6 -1 6 5 0 6 8 13 18 15 15 4
15 5 0 6 -9 0 -20 -4 -23 -10z"/>
<path d="M955 1224 c-13 -10 -15 -14 -4 -14 20 0 43 16 32 23 -4 3 -17 -1 -28
-9z"/>
<path d="M2730 1226 c0 -8 -9 -36 -20 -62 -11 -26 -19 -48 -17 -50 9 -9 67
-10 67 -2 0 6 11 8 25 6 15 -3 25 -1 25 6 -1 16 -25 46 -38 46 -6 0 -9 7 -6
15 4 8 1 15 -5 15 -6 0 -11 9 -11 20 0 11 -4 20 -10 20 -5 0 -10 -6 -10 -14z"/>
<path d="M1886 1217 c3 -10 9 -15 12 -12 3 3 0 11 -7 18 -10 9 -11 8 -5 -6z"/>
<path d="M943 1192 c-26 -4 -54 -32 -32 -32 13 0 -28 -26 -78 -49 -13 -6 -23
-15 -23 -20 0 -5 -9 -11 -19 -14 -14 -3 -18 -11 -14 -26 5 -20 -5 -27 -31 -22
-5 1 -6 -12 -3 -28 5 -24 2 -34 -16 -46 -12 -8 -16 -15 -10 -15 18 0 8 -33
-12 -40 -17 -6 -16 -7 5 -12 14 -3 39 -5 55 -4 23 1 30 6 28 21 -1 10 7 27 18
36 10 9 19 20 19 25 0 4 10 18 21 30 24 26 38 47 72 116 13 26 30 54 37 63 15
19 12 22 -17 17z"/>
<path d="M1835 1190 c3 -5 8 -10 11 -10 2 0 4 5 4 10 0 6 -5 10 -11 10 -5 0
-7 -4 -4 -10z"/>
<path d="M2185 1130 c3 -5 8 -10 11 -10 2 0 4 5 4 10 0 6 -5 10 -11 10 -5 0
-7 -4 -4 -10z"/>
<path d="M2587 1120 c-4 -15 0 -20 15 -20 18 0 19 2 7 18 -7 9 -14 18 -15 20
-1 1 -4 -6 -7 -18z"/>
<path d="M2778 1083 c7 -3 16 -2 19 1 4 3 -2 6 -13 5 -11 0 -14 -3 -6 -6z"/>
<path d="M1940 1055 c0 -5 5 -17 10 -25 5 -8 10 -10 10 -5 0 6 -5 17 -10 25
-5 8 -10 11 -10 5z"/>
<path d="M2755 1040 c-3 -5 -2 -10 4 -10 5 0 13 5 16 10 3 6 2 10 -4 10 -5 0
-13 -4 -16 -10z"/>
<path d="M1117 1034 c-11 -11 -8 -26 3 -19 6 3 11 -4 11 -17 1 -16 3 -18 6 -6
5 20 -10 52 -20 42z"/>
<path d="M2765 1010 c-3 -5 -1 -10 4 -10 6 0 11 5 11 10 0 6 -2 10 -4 10 -3 0
-8 -4 -11 -10z"/>
<path d="M1965 970 c-4 -17 -4 -34 -1 -37 3 -4 6 3 6 15 0 11 6 22 13 25 9 3
9 7 1 17 -9 9 -14 5 -19 -20z"/>
<path d="M906 944 c-4 -14 -5 -29 -2 -31 3 -3 8 7 12 21 3 15 4 29 1 32 -2 3
-8 -7 -11 -22z"/>
<path d="M2762 955 c-11 -12 -10 -15 3 -15 8 0 15 7 15 15 0 18 -2 18 -18 0z"/>
<path d="M848 943 c-10 -2 -18 -8 -18 -13 0 -10 38 -1 46 11 5 9 1 10 -28 2z"/>
<path d="M1135 940 c3 -5 11 -10 16 -10 6 0 7 5 4 10 -3 6 -11 10 -16 10 -6 0
-7 -4 -4 -10z"/>
<path d="M2016 931 c-15 -16 -15 -20 -1 -31 8 -7 12 -16 9 -21 -3 -5 0 -9 5
-9 14 0 14 27 1 35 -18 11 -10 27 11 22 16 -4 18 -3 8 9 -14 17 -13 18 -33 -5z"/>
<path d="M3396 915 c4 -8 11 -15 16 -15 6 0 5 6 -2 15 -7 8 -14 15 -16 15 -2
0 -1 -7 2 -15z"/>
<path d="M2717 880 c-3 -11 -2 -20 2 -20 5 0 16 9 26 20 18 19 17 20 -2 20
-12 0 -23 -8 -26 -20z"/>
<path d="M1960 840 c0 -6 7 -10 15 -10 8 0 15 2 15 4 0 2 -7 6 -15 10 -8 3
-15 1 -15 -4z"/>
<path d="M2718 823 c7 -3 16 -2 19 1 4 3 -2 6 -13 5 -11 0 -14 -3 -6 -6z"/>
<path d="M2312 800 c0 -14 2 -19 5 -12 2 6 2 18 0 25 -3 6 -5 1 -5 -13z"/>
<path d="M2338 783 c6 -2 18 -2 25 0 6 3 1 5 -13 5 -14 0 -19 -2 -12 -5z"/>
<path d="M2270 760 c0 -5 5 -10 11 -10 5 0 7 5 4 10 -3 6 -8 10 -11 10 -2 0
-4 -4 -4 -10z"/>
<path d="M155 711 c-3 -5 -1 -12 5 -16 5 -3 10 1 10 9 0 18 -6 21 -15 7z"/>
<path d="M3140 699 c0 -5 5 -7 10 -4 6 3 10 1 10 -4 0 -6 7 -11 16 -11 8 0 12
-5 9 -10 -3 -6 1 -13 10 -16 29 -11 28 4 -1 30 -30 27 -54 33 -54 15z"/>
<path d="M3059 648 c-39 -52 -119 -172 -172 -256 -61 -98 -107 -250 -107 -353
l0 -39 154 0 c166 0 157 -3 171 50 1 3 5 12 8 20 21 46 48 165 54 233 3 42 10
77 15 77 5 0 7 4 4 9 -3 5 0 30 8 57 14 51 36 162 36 181 0 6 -11 8 -26 5 -14
-2 -21 -8 -15 -11 6 -4 6 -12 2 -20 -7 -11 -13 -8 -26 12 -9 14 -24 28 -33 30
-13 3 -12 6 8 14 l25 10 -24 8 c-16 5 -26 3 -32 -6 -7 -12 -11 -12 -17 -1 -7
10 -15 5 -33 -20z m87 -63 c16 -12 17 -14 2 -15 -23 0 -48 11 -48 21 0 14 24
11 46 -6z"/>
<path d="M2895 581 c-3 -5 -1 -12 4 -15 5 -3 11 1 15 9 6 16 -9 21 -19 6z"/>
<path d="M2120 560 c-8 -5 -11 -12 -7 -16 4 -4 13 -2 19 4 15 15 7 24 -12 12z"/>
<path d="M71 527 c-7 -21 -10 -41 -7 -44 8 -8 28 47 23 66 -2 9 -9 -1 -16 -22z"/>
<path d="M3321 483 c-6 -21 -11 -43 -11 -49 0 -23 -28 -66 -33 -52 -6 14 -10
-23 -7 -59 1 -17 -3 -21 -14 -17 -13 5 -15 1 -10 -24 4 -21 2 -31 -10 -35 -9
-4 -16 -16 -16 -27 0 -12 -7 -28 -15 -36 -8 -8 -19 -34 -25 -57 -6 -23 -15
-51 -20 -62 -30 -67 -33 -65 97 -65 l119 0 27 61 c15 33 27 65 27 70 0 5 5 9
10 9 6 0 10 8 10 18 0 10 4 22 9 27 28 30 62 225 39 225 -5 0 -16 -16 -24 -35
-8 -19 -29 -59 -48 -88 -18 -28 -41 -69 -50 -89 -10 -20 -24 -42 -31 -48 -12
-10 -12 -6 -4 22 14 49 22 288 9 288 -5 0 -10 8 -10 18 0 14 2 15 10 2 8 -13
10 -13 10 1 0 9 -6 22 -14 28 -12 10 -17 6 -25 -26z m19 -257 c0 -3 -4 -8 -10
-11 -5 -3 -10 -1 -10 4 0 6 5 11 10 11 6 0 10 -2 10 -4z"/>
<path d="M1682 475 c0 -16 2 -22 5 -12 2 9 2 23 0 30 -3 6 -5 -1 -5 -18z"/>
<path d="M1975 410 c3 -5 8 -10 11 -10 2 0 4 5 4 10 0 6 -5 10 -11 10 -5 0 -7
-4 -4 -10z"/>
<path d="M1560 371 c0 -5 5 -13 10 -16 6 -3 10 -2 10 4 0 5 -4 13 -10 16 -5 3
-10 2 -10 -4z"/>
<path d="M1515 340 c3 -5 8 -10 11 -10 2 0 4 5 4 10 0 6 -5 10 -11 10 -5 0 -7
-4 -4 -10z"/>
<path d="M1585 340 c-3 -5 -1 -10 4 -10 6 0 11 5 11 10 0 6 -2 10 -4 10 -3 0
-8 -4 -11 -10z"/>
<path d="M1610 334 c0 -8 5 -12 10 -9 6 3 10 10 10 16 0 5 -4 9 -10 9 -5 0
-10 -7 -10 -16z"/>
<path d="M3722 305 c0 -16 2 -22 5 -12 2 9 2 23 0 30 -3 6 -5 -1 -5 -18z"/>
<path d="M1535 290 c-3 -5 -1 -10 4 -10 6 0 11 5 11 10 0 6 -2 10 -4 10 -3 0
-8 -4 -11 -10z"/>
<path d="M3641 153 l-1 -153 36 0 36 0 -6 58 c-15 132 -18 152 -26 147 -5 -3
-11 -1 -15 5 -3 5 -1 10 6 10 8 0 7 6 -4 18 -8 9 -17 28 -20 42 -2 14 -5 -44
-6 -127z"/>
<path d="M3726 243 c10 -40 14 -41 14 -5 0 18 -5 32 -10 32 -6 0 -8 -11 -4
-27z"/>
<path d="M3741 174 c0 -11 3 -14 6 -6 3 7 2 16 -1 19 -3 4 -6 -2 -5 -13z"/>
<path d="M3514 142 c-10 -7 -84 -128 -84 -138 0 -2 27 -4 60 -4 l60 0 2 33 c2
39 0 65 -7 95 -6 23 -13 27 -31 14z"/>
<path d="M3761 70 c0 -19 4 -44 9 -55 7 -16 9 -13 9 15 0 19 -4 44 -9 55 -7
16 -9 13 -9 -15z"/>
</g>
</svg>
